<svg width="51" height="50" viewBox="0 0 51 50" fill="none" xmlns="http://www.w3.org/2000/svg">
<g clip-path="url(#clip0_1863_59424)">
<path d="M1.45084 15.0404C2.65481 7.81657 8.31559 2.15579 15.5394 0.951818L17.0468 0.700581C22.6437 -0.232224 28.3563 -0.232225 33.9531 0.70058L35.4606 0.951817C42.6844 2.15579 48.3452 7.81656 49.5492 15.0404L49.8004 16.5478C50.7332 22.1447 50.7332 27.8573 49.8004 33.4541L49.5492 34.9615C48.3452 42.1854 42.6844 47.8462 35.4606 49.0501L33.9531 49.3014C28.3563 50.2342 22.6437 50.2342 17.0469 49.3014L15.5394 49.0501C8.31559 47.8462 2.65481 42.1854 1.45084 34.9616L1.1996 33.4541C0.266799 27.8573 0.266798 22.1447 1.1996 16.5478L1.45084 15.0404Z" fill="white"/>
<path d="M36.8531 15.7152V30.7819C36.8531 33.4219 34.7065 35.5685 32.0665 35.5685C29.4398 35.5685 27.2798 33.4219 27.2798 30.7819C27.2798 28.1552 29.4398 26.0085 32.0665 26.0085C33.1865 26.0085 34.1865 26.3952 34.9998 27.0352V19.1019L22.7198 22.5952V33.3552C22.7198 35.9952 20.5598 38.1419 17.9332 38.1419C15.2932 38.1419 13.1465 35.9952 13.1465 33.3552C13.1465 30.7285 15.2932 28.5819 17.9332 28.5819C19.0398 28.5819 20.0398 28.9685 20.8532 29.5952V17.8085C20.8532 15.8485 22.0398 14.3285 23.9198 13.8219L31.6265 11.7152C33.1865 11.2885 34.5065 11.4352 35.4398 12.1552C36.3865 12.8619 36.8531 14.0619 36.8531 15.7152Z" fill="#88115F"/>
</g>
<defs>
<clipPath id="clip0_1863_59424">
<rect width="50" height="50" fill="white" transform="translate(0.5 0.000976562)"/>
</clipPath>
</defs>
</svg>
