<svg width="51" height="51" viewBox="0 0 51 51" fill="none" xmlns="http://www.w3.org/2000/svg">
<g clip-path="url(#clip0_1863_59469)">
<path d="M1.33365 15.0824C2.53763 7.85856 8.1984 2.19778 15.4222 0.99381L16.9297 0.742573C22.5265 -0.190232 28.2391 -0.190233 33.836 0.742572L35.3434 0.993809C42.5672 2.19778 48.228 7.85856 49.432 15.0824L49.6832 16.5898C50.616 22.1866 50.616 27.8993 49.6832 33.4961L49.432 35.0035C48.228 42.2274 42.5672 47.8882 35.3434 49.0921L33.836 49.3434C28.2391 50.2762 22.5265 50.2762 16.9297 49.3434L15.4222 49.0921C8.1984 47.8882 2.53763 42.2274 1.33365 35.0035L1.08242 33.4961C0.149612 27.8993 0.149611 22.1866 1.08242 16.5898L1.33365 15.0824Z" fill="white"/>
<path d="M12.8229 34.3895L12.7962 34.4162C12.4362 33.6295 12.2095 32.7362 12.1162 31.7495C12.2095 32.7228 12.4629 33.6028 12.8229 34.3895Z" fill="#88115F"/>
<path d="M21.3828 22.8828C23.1354 22.8828 24.5561 21.462 24.5561 19.7095C24.5561 17.9569 23.1354 16.5361 21.3828 16.5361C19.6302 16.5361 18.2095 17.9569 18.2095 19.7095C18.2095 21.462 19.6302 22.8828 21.3828 22.8828Z" fill="#88115F"/>
<path d="M30.9693 11.7095H19.796C14.9426 11.7095 12.0493 14.6028 12.0493 19.4561V30.6295C12.0493 32.0828 12.3026 33.3495 12.796 34.4161C13.9426 36.9495 16.396 38.3761 19.796 38.3761H30.9693C35.8227 38.3761 38.716 35.4828 38.716 30.6295V27.5761V19.4561C38.716 14.6028 35.8227 11.7095 30.9693 11.7095ZM36.5427 25.7095C35.5027 24.8161 33.8226 24.8161 32.7826 25.7095L27.236 30.4695C26.196 31.3628 24.516 31.3628 23.476 30.4695L23.0226 30.0961C22.076 29.2695 20.5693 29.1895 19.5027 29.9095L14.516 33.2561C14.2226 32.5095 14.0493 31.6428 14.0493 30.6295V19.4561C14.0493 15.6961 16.036 13.7095 19.796 13.7095H30.9693C34.7293 13.7095 36.716 15.6961 36.716 19.4561V25.8561L36.5427 25.7095Z" fill="#88115F"/>
</g>
<defs>
<clipPath id="clip0_1863_59469">
<rect width="50" height="50" fill="white" transform="translate(0.382812 0.0429688)"/>
</clipPath>
</defs>
</svg>
