<svg width="51" height="50" viewBox="0 0 51 50" fill="none" xmlns="http://www.w3.org/2000/svg">
<g clip-path="url(#clip0_1863_59461)">
<path d="M1.45084 15.0399C2.65481 7.81608 8.31559 2.1553 15.5394 0.951329L17.0468 0.700093C22.6437 -0.232713 28.3563 -0.232713 33.9531 0.700092L35.4606 0.951329C42.6844 2.1553 48.3452 7.81608 49.5492 15.0399L49.8004 16.5473C50.7332 22.1442 50.7332 27.8568 49.8004 33.4536L49.5492 34.9611C48.3452 42.1849 42.6844 47.8457 35.4606 49.0496L33.9531 49.3009C28.3563 50.2337 22.6437 50.2337 17.0469 49.3009L15.5394 49.0496C8.31559 47.8457 2.65481 42.1849 1.45084 34.9611L1.1996 33.4536C0.266799 27.8568 0.266798 22.1442 1.1996 16.5473L1.45084 15.0399Z" fill="white"/>
<path d="M11.2904 14.7766C11.2904 14.7766 16.581 8.14799 22.8802 9.29373C30.6442 10.7059 27.89 17.0662 29.3377 19.0267C31.0185 21.3033 32.3621 22.5094 32.4434 23.2439C32.5247 23.978 29.6119 24.1263 29.7175 24.6831C29.8232 25.24 30.3925 26.664 29.8786 27.0553C29.3411 27.4648 25.3913 27.9979 25.5066 28.6332C25.9556 31.1048 29.0623 30.8621 29.7643 31.0173C30.3647 31.15 28.8357 35.6526 28.8357 35.6526C28.2661 36.2988 24.1761 34.9016 24.0371 35.4852C23.7346 36.7541 23.8779 40.2249 24.1129 41.1606C24.1129 41.1606 18.2969 40.4941 11.9996 39.823C11.9996 39.823 14.0464 34.495 12.4536 31.5675C10.8607 28.6398 6.25499 22.5926 11.2904 14.7766Z" fill="#88115F"/>
<path d="M13.4436 17.1851C13.4053 17.18 13.3688 17.1656 13.3373 17.143C13.3059 17.1205 13.2805 17.0905 13.2633 17.0558C13.2462 17.0211 13.2379 16.9828 13.2391 16.9441C13.2403 16.9054 13.251 16.8676 13.2702 16.8341C14.0187 15.5141 21.1908 11.3817 22.0062 10.9149C22.0604 10.8869 22.1233 10.881 22.1818 10.8983C22.2403 10.9156 22.2899 10.9548 22.3202 11.0078C22.3504 11.0607 22.3591 11.1233 22.3444 11.1825C22.3296 11.2417 22.2926 11.2929 22.241 11.3254C20.0567 12.576 14.2608 16.046 13.6813 17.0672C13.658 17.1084 13.6229 17.1416 13.5805 17.1626C13.5382 17.1836 13.4905 17.1915 13.4436 17.1851Z" fill="#FBFCFF"/>
<path d="M33.376 25.1518C33.376 25.1518 38.9803 21.447 39.1293 22.0758C39.3652 23.0713 40.7035 24.8599 40.0987 25.3204C39.4939 25.7809 34.6772 27.1429 34.1447 27.071C33.6122 26.9987 33.376 25.1518 33.376 25.1518ZM34.3694 28.3251C34.3694 28.3251 41.5822 27.1314 41.5099 27.6642C41.4379 28.1968 41.1544 31.7639 41.1544 31.7639L34.3064 30.1246L34.3694 28.3251ZM34.2625 31.2021L39.5328 34.4355C39.4185 34.5876 37.4884 37.8998 37.1142 37.5181C36.5281 36.9199 32.8809 32.646 32.8809 32.646L34.2625 31.2021Z" fill="#88115F"/>
<path d="M38.2666 23.4554C38.2666 23.4694 38.2614 23.4828 38.252 23.4932C38.2427 23.5036 38.2298 23.5101 38.2159 23.5116C36.6094 23.6778 35.4829 24.566 35.4718 24.575C35.4473 24.5945 35.4117 24.5906 35.3922 24.5662C35.3829 24.5544 35.3786 24.5395 35.3802 24.5246C35.3819 24.5097 35.3893 24.496 35.401 24.4866C35.4125 24.4774 36.5651 23.5685 38.2041 23.3991C38.212 23.3982 38.22 23.3991 38.2276 23.4015C38.2351 23.404 38.242 23.408 38.2479 23.4133C38.2538 23.4186 38.2585 23.4251 38.2618 23.4324C38.265 23.4396 38.2666 23.4475 38.2666 23.4554Z" fill="white"/>
</g>
<defs>
<clipPath id="clip0_1863_59461">
<rect width="50" height="50" fill="white" transform="translate(0.5 0.000488281)"/>
</clipPath>
</defs>
</svg>
