<svg width="50" height="50" viewBox="0 0 50 50" fill="none" xmlns="http://www.w3.org/2000/svg">
<g clip-path="url(#clip0_1863_70404)">
<path d="M0.95084 15.0404C2.15481 7.81657 7.81559 2.15579 15.0394 0.951818L16.5468 0.700581C22.1437 -0.232224 27.8563 -0.232225 33.4531 0.70058L34.9606 0.951817C42.1844 2.15579 47.8452 7.81656 49.0492 15.0404L49.3004 16.5478C50.2332 22.1447 50.2332 27.8573 49.3004 33.4541L49.0492 34.9615C47.8452 42.1854 42.1844 47.8462 34.9606 49.0501L33.4531 49.3014C27.8563 50.2342 22.1437 50.2342 16.5469 49.3014L15.0394 49.0501C7.81559 47.8462 2.15481 42.1854 0.950841 34.9616L0.699604 33.4541C-0.233201 27.8573 -0.233202 22.1447 0.699604 16.5478L0.95084 15.0404Z" fill="#CDCDCD"/>
<path d="M36.3531 15.7152V30.7819C36.3531 33.4219 34.2065 35.5685 31.5665 35.5685C28.9398 35.5685 26.7798 33.4219 26.7798 30.7819C26.7798 28.1552 28.9398 26.0085 31.5665 26.0085C32.6865 26.0085 33.6865 26.3952 34.4998 27.0352V19.1019L22.2198 22.5952V33.3552C22.2198 35.9952 20.0598 38.1419 17.4332 38.1419C14.7932 38.1419 12.6465 35.9952 12.6465 33.3552C12.6465 30.7285 14.7932 28.5819 17.4332 28.5819C18.5398 28.5819 19.5398 28.9685 20.3532 29.5952V17.8085C20.3532 15.8485 21.5398 14.3285 23.4198 13.8219L31.1265 11.7152C32.6865 11.2885 34.0065 11.4352 34.9398 12.1552C35.8865 12.8619 36.3531 14.0619 36.3531 15.7152Z" fill="#121212"/>
<line x1="40.6081" y1="9.81955" x2="11.4205" y2="41.8126" stroke="#FF335F" stroke-width="3"/>
</g>
<defs>
<clipPath id="clip0_1863_70404">
<rect width="50" height="50" fill="white" transform="translate(0 0.000976562)"/>
</clipPath>
</defs>
</svg>
