<svg width="50" height="50" viewBox="0 0 50 50" fill="none" xmlns="http://www.w3.org/2000/svg">
<g clip-path="url(#clip0_1863_72862)">
<path d="M0.95084 15.0399C2.15481 7.81608 7.81559 2.1553 15.0394 0.951329L16.5468 0.700093C22.1437 -0.232713 27.8563 -0.232713 33.4531 0.700092L34.9606 0.951329C42.1844 2.1553 47.8452 7.81608 49.0492 15.0399L49.3004 16.5473C50.2332 22.1442 50.2332 27.8568 49.3004 33.4536L49.0492 34.9611C47.8452 42.1849 42.1844 47.8457 34.9606 49.0496L33.4531 49.3009C27.8563 50.2337 22.1437 50.2337 16.5469 49.3009L15.0394 49.0496C7.81559 47.8457 2.15481 42.1849 0.950841 34.9611L0.699604 33.4536C-0.233201 27.8568 -0.233202 22.1442 0.699604 16.5473L0.95084 15.0399Z" fill="#CDCDCD"/>
<path d="M10.7904 14.7766C10.7904 14.7766 16.081 8.14799 22.3802 9.29373C30.1442 10.7059 27.39 17.0662 28.8377 19.0267C30.5185 21.3033 31.8621 22.5094 31.9434 23.2439C32.0247 23.978 29.1119 24.1263 29.2175 24.6831C29.3232 25.24 29.8925 26.664 29.3786 27.0553C28.8411 27.4648 24.8913 27.9979 25.0066 28.6332C25.4556 31.1048 28.5623 30.8621 29.2643 31.0173C29.8647 31.15 28.3357 35.6526 28.3357 35.6526C27.7661 36.2988 23.6761 34.9016 23.5371 35.4852C23.2346 36.7541 23.3779 40.2249 23.6129 41.1606C23.6129 41.1606 17.7969 40.4941 11.4996 39.823C11.4996 39.823 13.5464 34.495 11.9536 31.5675C10.3607 28.6398 5.75499 22.5926 10.7904 14.7766Z" fill="#121212"/>
<path d="M12.9434 17.1851C12.905 17.18 12.8685 17.1656 12.8371 17.143C12.8056 17.1205 12.7802 17.0905 12.7631 17.0558C12.7459 17.0211 12.7376 16.9828 12.7388 16.9441C12.74 16.9054 12.7507 16.8676 12.77 16.8341C13.5184 15.5141 20.6905 11.3817 21.506 10.9149C21.5602 10.8869 21.6231 10.881 21.6816 10.8983C21.7401 10.9156 21.7896 10.9548 21.8199 11.0078C21.8502 11.0607 21.8589 11.1233 21.8441 11.1825C21.8294 11.2417 21.7923 11.2929 21.7408 11.3254C19.5564 12.576 13.7605 16.046 13.1811 17.0672C13.1577 17.1084 13.1226 17.1416 13.0803 17.1626C13.0379 17.1836 12.9902 17.1915 12.9434 17.1851Z" fill="#FBFCFF"/>
<path d="M32.8757 25.1518C32.8757 25.1518 38.4801 21.447 38.629 22.0758C38.8649 23.0713 40.2032 24.8599 39.5984 25.3204C38.9936 25.7809 34.177 27.1429 33.6444 27.071C33.1119 26.9987 32.8757 25.1518 32.8757 25.1518ZM33.8691 28.3251C33.8691 28.3251 41.0819 27.1314 41.0096 27.6642C40.9377 28.1968 40.6541 31.7639 40.6541 31.7639L33.8062 30.1246L33.8691 28.3251ZM33.7622 31.2021L39.0326 34.4355C38.9182 34.5876 36.9882 37.8998 36.614 37.5181C36.0278 36.9199 32.3806 32.646 32.3806 32.646L33.7622 31.2021Z" fill="#121212"/>
<path d="M37.7664 23.4554C37.7664 23.4694 37.7612 23.4828 37.7518 23.4932C37.7424 23.5036 37.7295 23.5101 37.7156 23.5116C36.1091 23.6778 34.9827 24.566 34.9715 24.575C34.9471 24.5945 34.9115 24.5906 34.8919 24.5662C34.8826 24.5544 34.8783 24.5395 34.88 24.5246C34.8816 24.5097 34.8891 24.496 34.9007 24.4866C34.9122 24.4774 36.0648 23.5685 37.7039 23.3991C37.7118 23.3982 37.7198 23.3991 37.7273 23.4015C37.7349 23.404 37.7418 23.408 37.7477 23.4133C37.7536 23.4186 37.7583 23.4251 37.7615 23.4324C37.7647 23.4396 37.7664 23.4475 37.7664 23.4554Z" fill="white"/>
<line x1="40.6081" y1="9.81858" x2="11.4205" y2="41.8117" stroke="#FF335F" stroke-width="3"/>
</g>
<defs>
<clipPath id="clip0_1863_72862">
<rect width="50" height="50" fill="white" transform="translate(0 0.000488281)"/>
</clipPath>
</defs>
</svg>
